<?xml version="1.0" standalone="no"?>
<!DOCTYPE svg PUBLIC "-//W3C//DTD SVG 20010904//EN"
 "http://www.w3.org/TR/2001/REC-SVG-20010904/DTD/svg10.dtd">
<svg version="1.0" xmlns="http://www.w3.org/2000/svg"
 width="1000.000000pt" height="1000.000000pt" viewBox="0 0 1000.000000 1000.000000"
 preserveAspectRatio="xMidYMid meet">
<metadata>
Created by potrace 1.11, written by Peter Selinger 2001-2013
</metadata>
<g transform="translate(0.000000,1000.000000) scale(0.100000,-0.100000)"
fill="#000000" stroke="none">
<path d="M4856 8683 c-3 -142 -8 -293 -11 -335 l-4 -78 59 0 60 0 1 63 c1 34
4 132 8 219 l6 156 125 -224 125 -224 66 0 67 0 6 278 c3 152 8 303 11 335 l5
57 -59 0 -58 0 -9 -206 -9 -206 -117 209 -116 208 -75 3 -75 3 -6 -258z"/>
<path d="M4311 8876 c-30 -6 -56 -16 -57 -21 -4 -10 -104 -675 -104 -686 0 -6
111 10 119 17 3 3 10 39 15 82 l11 77 90 17 c144 27 138 29 180 -52 34 -63 39
-69 64 -64 14 3 46 8 69 12 24 4 44 12 44 17 0 6 -74 146 -163 313 -182 338
-158 312 -268 288z m149 -376 c0 -7 -140 -34 -145 -28 -3 3 22 181 31 218 5
21 13 9 60 -80 30 -57 54 -106 54 -110z"/>
<path d="M5637 8562 c-97 -158 -177 -294 -179 -301 -2 -9 15 -18 52 -27 30 -7
56 -13 56 -14 1 0 21 32 44 71 37 62 45 70 65 65 13 -3 64 -15 113 -27 l91
-20 6 -67 c3 -37 7 -74 8 -82 3 -19 141 -53 144 -36 4 18 -62 685 -69 691 -7
7 -115 34 -139 35 -11 0 -76 -98 -192 -288z m230 -129 c-3 -2 -141 29 -146 33
-2 2 25 52 60 111 l64 108 12 -125 c6 -69 11 -126 10 -127z"/>
<path d="M3593 8677 c-78 -29 -145 -55 -148 -59 -6 -6 208 -613 221 -627 4 -4
107 28 125 39 5 4 -10 58 -35 125 l-44 120 81 30 c108 41 142 62 174 108 21
30 28 54 31 101 5 69 -10 109 -57 159 -70 76 -148 77 -348 4z m233 -89 c7 -5
17 -22 24 -38 18 -44 -1 -84 -53 -108 -49 -23 -126 -47 -130 -41 -2 2 -15 37
-30 76 -17 50 -22 75 -15 79 6 4 43 17 82 30 68 22 97 22 122 2z"/>
<path d="M6272 8392 c-78 -163 -142 -300 -142 -304 0 -7 86 -48 100 -48 3 0
53 97 110 215 57 118 105 214 106 212 2 -1 -13 -108 -31 -237 -19 -129 -35
-243 -35 -252 0 -10 14 -25 32 -34 l31 -16 86 88 c48 49 130 135 183 191 l96
101 -104 -216 c-93 -193 -113 -242 -100 -242 2 0 29 -11 60 -25 l57 -25 145
296 c79 163 144 299 144 303 0 4 -41 27 -90 51 l-90 44 -29 -29 c-15 -17 -78
-82 -139 -147 -62 -64 -112 -110 -112 -103 0 7 11 95 25 195 14 100 25 185 25
189 0 6 -174 92 -183 91 -1 -1 -66 -134 -145 -298z"/>
<path d="M7135 8072 c-66 -86 -157 -205 -202 -264 l-83 -107 175 -136 176
-135 24 27 c27 32 50 71 44 76 -103 79 -229 179 -229 183 0 2 21 31 47 64 29
38 50 57 57 52 6 -5 45 -35 86 -67 41 -32 80 -62 86 -66 9 -8 74 64 74 82 0 4
-41 40 -90 79 -63 49 -88 75 -83 84 15 25 78 105 83 105 3 1 57 -40 120 -89
l115 -90 28 32 c53 62 59 53 -119 191 -90 70 -170 129 -176 132 -7 2 -66 -65
-133 -153z"/>
<path d="M2662 8165 l-61 -45 13 -42 c49 -158 200 -615 207 -622 7 -8 99 51
99 64 0 4 -9 33 -20 65 -11 32 -20 66 -20 76 0 10 37 44 90 84 l89 67 66 -47
66 -47 37 26 c20 14 48 34 61 44 l23 19 -48 35 c-165 119 -524 368 -531 368
-5 0 -37 -20 -71 -45z m268 -265 c14 -10 23 -20 20 -22 -3 -2 -31 -23 -62 -46
l-57 -42 -35 108 c-20 59 -36 111 -36 115 0 7 100 -59 170 -113z"/>
<path d="M7542 7568 l-250 -221 45 -53 46 -53 98 87 c55 48 101 87 102 87 2 0
24 -24 50 -53 l47 -53 -65 -125 -66 -124 19 -27 c11 -16 33 -40 49 -55 l29
-28 69 133 69 134 71 -5 c65 -4 73 -2 117 28 62 42 104 121 94 181 -10 65 -37
106 -156 242 -61 70 -113 127 -114 127 -2 0 -116 -100 -254 -222z m322 -32
c80 -90 85 -146 16 -181 -43 -22 -82 -2 -152 77 l-56 64 60 52 c33 29 63 52
68 52 5 0 33 -29 64 -64z"/>
<path d="M5365 7694 c-37 -40 -50 -96 -30 -134 24 -47 4 -91 -25 -55 -7 8 -19
15 -27 15 -15 0 -14 20 3 64 3 9 1 16 -4 16 -15 0 -51 -48 -58 -77 -4 -12 -7
-23 -8 -23 0 0 -28 -4 -60 -10 -56 -9 -60 -8 -82 15 -30 33 -76 33 -101 2 -10
-13 -32 -30 -48 -38 -28 -14 -34 -14 -70 3 -28 12 -52 16 -79 12 -35 -6 -38
-5 -31 15 4 14 0 31 -9 46 -14 21 -24 25 -68 25 -39 0 -57 5 -75 21 -14 14
-40 24 -72 27 -64 6 -200 -14 -263 -39 -27 -10 -65 -19 -86 -19 -20 0 -51 -9
-68 -19 l-32 -19 -22 23 c-13 14 -44 31 -69 39 -83 28 -250 65 -319 71 -63 6
-72 4 -145 -29 -43 -20 -87 -36 -98 -36 -11 0 -30 -11 -43 -25 -13 -14 -32
-25 -43 -25 -25 0 -39 -16 -48 -53 -4 -15 -11 -27 -16 -27 -5 0 -9 -11 -9 -25
0 -28 -3 -29 -29 -16 -27 15 -43 -3 -52 -60 -7 -46 -6 -56 8 -66 15 -12 15
-13 -4 -13 -11 0 -28 -8 -37 -19 -9 -10 -31 -21 -47 -25 -52 -10 -29 -31 32
-29 l54 2 -37 -30 c-21 -17 -38 -40 -38 -51 0 -11 -8 -22 -20 -25 -11 -3 -20
-9 -20 -14 0 -5 -13 -15 -30 -24 -39 -20 -42 -61 -5 -75 14 -5 25 -16 25 -25
0 -8 15 -24 33 -35 17 -11 34 -30 37 -42 4 -13 14 -23 23 -23 10 0 22 -7 27
-15 12 -19 53 0 76 35 10 16 25 25 43 25 34 0 87 33 96 59 4 14 15 21 31 21
14 0 43 9 65 20 l39 21 91 -31 c119 -40 124 -43 190 -109 32 -31 77 -73 102
-94 34 -28 61 -68 107 -155 50 -97 70 -124 111 -155 47 -36 49 -40 44 -75 -11
-62 -12 -64 -49 -57 -41 8 -56 -11 -56 -74 0 -23 -4 -41 -9 -41 -41 0 -58
-209 -21 -265 11 -16 20 -40 20 -52 0 -12 10 -30 23 -40 12 -10 31 -35 41 -56
11 -21 37 -52 58 -69 21 -16 38 -38 38 -49 0 -11 7 -31 16 -44 9 -14 14 -32
11 -40 -4 -8 3 -21 16 -30 12 -8 31 -34 42 -57 19 -40 66 -78 73 -59 4 11 -63
149 -83 171 -8 9 -17 32 -21 51 -5 30 -4 32 7 14 7 -11 21 -26 31 -34 11 -7
17 -19 14 -27 -3 -8 4 -22 15 -32 12 -9 32 -34 45 -55 14 -21 42 -50 64 -65
37 -26 70 -90 70 -136 0 -8 7 -19 17 -24 12 -7 14 -17 9 -43 -6 -30 -2 -37 49
-85 31 -30 55 -61 55 -73 0 -31 28 -51 70 -51 22 0 55 -8 75 -17 30 -15 42
-15 80 -5 69 18 88 15 124 -22 25 -26 47 -36 91 -45 68 -14 85 -31 93 -90 7
-55 32 -89 86 -118 32 -16 48 -20 66 -13 15 6 34 5 53 -2 23 -9 37 -9 57 0
l27 13 -6 -38 c-4 -21 -9 -75 -12 -120 l-6 -83 -39 -10 c-35 -10 -44 -19 -40
-43 1 -4 -6 -22 -15 -39 -13 -25 -15 -46 -9 -97 4 -37 6 -88 6 -115 -2 -43 2
-53 32 -85 29 -32 89 -124 139 -216 8 -16 44 -51 79 -78 90 -68 128 -130 111
-178 -6 -16 -5 -40 5 -72 11 -39 12 -94 5 -310 -8 -243 -10 -265 -31 -308
l-23 -45 31 -59 c18 -33 37 -63 44 -67 6 -4 12 -23 14 -42 1 -30 -2 -36 -17
-36 -30 0 -48 -38 -55 -115 -19 -194 64 -395 184 -450 39 -17 41 -17 110 4 91
28 99 41 23 41 -65 0 -77 8 -92 58 l-8 31 39 -29 c55 -39 87 -44 155 -24 83
23 116 42 112 62 -3 13 -18 18 -73 22 -64 5 -70 7 -77 30 -52 175 -53 183 -23
220 18 22 25 70 16 110 -8 38 6 88 39 142 11 18 20 48 20 66 0 48 48 116 75
106 12 -5 35 36 35 61 0 8 8 15 18 15 10 0 22 3 26 7 4 5 12 9 17 9 5 1 13 2
18 3 14 2 34 59 28 81 -4 16 0 20 20 20 14 0 39 11 57 25 66 52 66 51 53 84
-10 27 -7 35 27 90 20 34 40 78 43 99 9 55 29 90 66 108 17 9 46 29 62 44 17
15 47 33 68 40 30 9 42 20 54 49 8 20 29 51 46 69 32 33 32 33 33 152 l2 119
37 45 c21 25 41 46 45 46 5 0 22 12 39 26 27 22 31 32 31 75 0 40 -5 54 -31
84 -42 47 -66 59 -186 89 -55 14 -132 39 -171 56 -39 16 -88 30 -108 30 -30 0
-35 3 -26 12 7 7 12 29 12 49 0 84 -119 197 -276 263 -49 20 -114 53 -144 73
-30 20 -71 47 -91 60 -31 20 -44 23 -86 17 -33 -4 -53 -2 -57 5 -12 18 -121
14 -137 -6 -8 -9 -40 -29 -72 -44 -32 -15 -64 -35 -71 -45 -12 -15 -17 -16
-44 -5 -18 7 -42 11 -55 7 -36 -9 -65 17 -59 52 5 36 -13 72 -35 72 -12 0 -13
5 -7 23 11 33 8 105 -6 122 -8 10 -30 15 -61 15 -42 0 -48 2 -42 18 3 9 17 29
30 43 23 25 63 115 63 142 0 9 -23 11 -91 9 l-90 -3 -20 -46 c-10 -24 -19 -51
-19 -59 0 -10 -12 -14 -39 -14 -25 0 -41 -5 -45 -15 -3 -9 -18 -15 -40 -15
l-34 0 -10 63 c-6 34 -17 80 -25 103 -15 38 -14 47 3 113 10 40 21 76 25 79 3
4 37 5 75 4 53 -1 77 3 100 17 25 15 40 16 81 10 60 -9 89 -32 89 -67 0 -41
22 -92 40 -92 26 0 28 8 18 52 -6 28 -5 58 3 95 14 62 24 74 33 37 4 -14 14
-43 24 -65 14 -34 21 -39 48 -39 39 0 45 14 37 79 -3 27 0 72 7 100 10 43 23
62 83 121 40 38 93 85 118 104 37 29 49 47 63 93 24 77 89 186 129 217 17 13
50 32 73 40 38 16 104 85 104 110 1 6 29 29 63 51 34 23 71 55 82 73 16 25 27
31 53 32 53 0 88 32 107 95 17 58 9 95 -20 95 -8 0 -18 6 -22 13 -4 8 -21 21
-38 30 -100 53 -94 47 -88 83 3 19 1 46 -5 61 -6 16 -13 40 -16 56 -9 38 -37
35 -75 -8 -29 -34 -73 -59 -84 -49 -3 3 0 18 6 34 10 26 7 34 -23 77 -19 26
-40 52 -47 56 -8 5 -31 26 -52 48 -22 21 -46 39 -55 39 -8 0 -31 -15 -51 -34
-33 -31 -36 -38 -29 -70 7 -39 4 -42 -25 -24 -15 9 -24 7 -50 -11 -28 -20 -31
-27 -31 -77 0 -46 -4 -59 -25 -78 -14 -13 -25 -27 -25 -31 0 -4 11 -16 25 -27
34 -27 32 -40 -16 -83 l-41 -37 -32 31 c-17 17 -57 39 -88 50 -72 25 -86 32
-185 98 l-82 54 40 62 c21 34 39 68 39 74 0 17 92 89 150 118 45 23 74 48 134
118 20 23 36 33 48 29 19 -5 98 63 98 84 0 21 -32 74 -50 84 -32 17 -94 -18
-83 -47 5 -13 1 -12 -21 3 -23 14 -33 16 -56 7 -28 -10 -29 -9 -50 39 -11 27
-28 52 -36 55 -10 3 -13 18 -12 46 4 52 -20 61 -57 21z m-1668 -89 c59 -6 274
-59 300 -74 10 -5 28 -21 40 -35 27 -31 42 -32 76 -6 14 11 37 20 52 20 15 0
59 11 98 24 82 28 225 50 267 41 15 -3 36 -15 46 -26 13 -14 30 -19 71 -19
l54 0 -6 -34 c-8 -42 11 -56 80 -56 27 0 63 -9 86 -21 36 -18 43 -19 57 -6 10
8 27 18 40 22 12 3 30 17 38 31 22 32 33 30 46 -7 9 -28 14 -30 42 -26 131 23
208 29 219 18 26 -26 65 -4 85 50 8 19 6 34 -5 58 -18 36 -15 42 13 35 11 -3
27 -24 38 -52 24 -60 40 -74 73 -61 32 12 36 8 23 -25 -5 -15 -10 -43 -10 -61
0 -41 -22 -64 -104 -108 -63 -33 -156 -111 -156 -130 0 -7 -22 -47 -49 -89
l-50 -77 77 -54 c110 -76 140 -93 218 -123 92 -34 104 -46 104 -104 0 -58 19
-77 82 -86 40 -6 47 -4 57 14 6 12 10 34 9 49 -1 15 6 58 16 94 16 58 24 70
72 110 30 24 54 47 54 50 0 3 -11 22 -24 42 -22 32 -23 36 -8 51 9 9 17 39 20
76 3 46 9 63 23 71 16 8 29 0 84 -57 68 -69 72 -78 53 -118 -9 -22 -8 -29 7
-46 31 -34 102 -21 141 26 l21 26 11 -30 c7 -21 7 -43 0 -71 -14 -55 -6 -71
36 -71 19 0 38 -5 41 -10 4 -6 25 -23 48 -38 23 -15 46 -30 50 -33 5 -3 4 -24
-2 -46 -16 -61 -38 -67 -186 -59 l-126 6 -45 -32 c-46 -33 -84 -83 -84 -111 0
-22 47 -56 69 -50 10 2 28 18 40 33 13 19 34 32 56 36 49 9 53 0 10 -24 -19
-12 -35 -28 -35 -36 0 -25 -52 -78 -95 -96 -23 -10 -59 -33 -79 -50 -46 -41
-109 -147 -131 -220 -15 -49 -24 -61 -91 -115 -110 -88 -163 -152 -181 -222
-8 -31 -12 -71 -10 -88 l6 -30 -14 30 c-8 17 -14 35 -15 42 0 22 -59 61 -104
67 -34 5 -53 3 -78 -10 -22 -12 -57 -18 -108 -19 -62 0 -85 -6 -135 -30 -73
-36 -94 -66 -119 -168 -19 -75 -19 -79 -1 -135 10 -31 19 -68 21 -82 8 -64 17
-101 27 -107 6 -3 61 -7 124 -9 l113 -2 0 51 c0 86 5 95 58 99 26 3 49 3 51 1
8 -6 -28 -73 -39 -73 -15 0 -40 -63 -40 -98 0 -25 5 -30 31 -36 17 -3 42 -3
55 0 19 5 26 1 33 -17 11 -32 -7 -72 -28 -63 -48 20 -88 33 -107 34 -11 0 -33
13 -49 30 -40 42 -70 50 -133 34 -46 -12 -57 -12 -83 2 -17 8 -52 18 -79 21
-46 5 -50 8 -56 38 -4 22 -21 46 -54 74 -45 39 -48 44 -43 81 4 31 2 41 -11
46 -9 3 -16 17 -16 29 0 13 -4 27 -10 30 -5 3 -10 17 -10 30 0 21 -41 66 -82
92 -8 4 -24 25 -37 46 -13 20 -31 42 -42 47 -11 6 -19 21 -19 35 0 14 -8 29
-19 34 -10 6 -22 22 -25 36 -7 28 -27 33 -47 9 -10 -12 -10 -22 -1 -46 9 -25
9 -28 -4 -18 -8 7 -14 21 -14 31 0 10 -19 40 -42 67 -59 68 -73 86 -81 102 -4
8 -11 22 -16 30 -69 116 -75 258 -13 319 8 9 12 25 8 41 -6 34 15 66 38 57 24
-9 45 2 61 34 32 60 11 115 -58 158 -25 15 -47 47 -88 128 -41 82 -67 121
-109 160 -30 29 -80 77 -110 106 -30 30 -65 59 -77 66 -41 21 -204 71 -233 71
-16 0 -32 5 -35 10 -10 16 -51 12 -67 -7 -9 -10 -25 -37 -36 -59 -22 -44 -37
-54 -79 -54 -16 0 -37 -13 -59 -37 -26 -29 -37 -34 -46 -25 -7 7 -20 12 -30
12 -10 0 -17 3 -17 8 4 21 -4 33 -30 46 -16 9 -31 25 -34 36 -3 12 -15 24 -26
27 -12 3 -21 10 -21 17 1 14 64 54 98 62 63 14 63 14 56 49 -3 19 -1 35 5 39
18 12 12 45 -9 56 -33 18 -15 27 44 22 49 -4 55 -2 71 21 20 31 13 47 -20 47
-18 0 -23 4 -19 15 5 11 -3 17 -25 21 -21 5 -31 12 -31 25 0 22 4 23 30 9 27
-14 48 -2 52 28 2 20 9 28 28 30 14 2 57 18 95 36 39 19 79 32 90 30 11 -1 44
-5 72 -9z m1975 -97 c2 -14 -5 -30 -19 -40 -28 -23 -36 -23 -23 1 5 11 10 29
10 40 0 28 28 27 32 -1z m-2415 -234 c-3 -3 -12 -4 -19 -1 -8 3 -5 6 6 6 11 1
17 -2 13 -5z m2723 -748 c0 -3 -4 -8 -10 -11 -5 -3 -10 -1 -10 4 0 6 5 11 10
11 6 0 10 -2 10 -4z m-1527 -848 c28 -81 28 -83 -3 -25 -17 31 -35 57 -40 57
-6 0 -10 7 -10 15 0 30 38 -3 53 -47z m420 -515 c-7 -2 -21 -2 -30 0 -10 3 -4
5 12 5 17 0 24 -2 18 -5z m251 -48 c3 -8 1 -15 -4 -15 -6 0 -10 7 -10 15 0 8
2 15 4 15 2 0 6 -7 10 -15z m161 -105 c9 -68 35 -104 98 -134 42 -21 59 -25
79 -17 13 5 30 6 37 1 9 -5 5 -9 -13 -14 -17 -4 -26 -13 -26 -26 0 -23 -25
-26 -65 -8 -20 9 -31 9 -44 1 -15 -9 -26 -7 -56 14 -35 24 -37 28 -31 65 6 37
5 40 -24 49 -34 12 -36 19 -15 59 9 18 13 40 9 55 -6 24 -5 25 19 14 20 -9 27
-21 32 -59z m75 -32 c-1 -42 -1 -43 -15 -18 -19 33 -19 60 0 60 11 0 15 -11
15 -42z m468 3 c14 -7 39 -10 65 -6 34 5 51 2 92 -21 28 -15 64 -38 80 -50 17
-12 76 -42 133 -67 119 -53 191 -104 233 -166 35 -53 36 -67 7 -98 -34 -36
-15 -56 58 -64 32 -4 85 -18 116 -33 32 -14 106 -39 166 -55 128 -34 144 -41
171 -80 31 -43 27 -75 -11 -100 -18 -11 -52 -40 -76 -64 l-43 -44 -6 -129 c-5
-123 -7 -130 -33 -159 -15 -16 -34 -43 -41 -60 -10 -20 -24 -31 -46 -36 -18
-3 -51 -23 -73 -43 -23 -20 -52 -42 -66 -48 -29 -14 -58 -65 -69 -123 -4 -22
-23 -66 -43 -98 -24 -40 -36 -70 -35 -93 1 -26 -6 -40 -29 -59 l-29 -25 -50
26 c-27 14 -56 24 -64 20 -17 -6 -21 -46 -5 -46 6 0 10 -8 10 -19 0 -10 9 -30
21 -45 l20 -26 -29 0 c-41 0 -82 -35 -82 -70 0 -19 -6 -29 -19 -33 -29 -7 -78
-82 -86 -130 -6 -36 -34 -109 -66 -169 -5 -11 -5 -28 1 -43 12 -33 13 -95 1
-95 -13 0 -34 -57 -33 -91 0 -17 8 -49 16 -72 8 -23 20 -61 26 -85 6 -24 20
-51 30 -60 33 -28 1 -33 -49 -7 -107 55 -176 245 -156 431 6 63 8 66 41 80 33
14 34 16 30 61 -2 28 -10 51 -20 58 -9 7 -28 34 -42 61 l-26 48 23 45 c22 43
24 64 31 306 7 213 6 268 -6 308 -10 36 -12 57 -4 78 14 40 -20 108 -79 157
-85 69 -118 108 -177 211 -32 56 -69 110 -82 120 -19 15 -23 28 -24 77 -3 127
-2 181 5 216 6 33 12 38 41 44 19 3 38 11 42 18 7 11 23 154 25 238 2 45 3 48
47 68 25 12 55 29 67 38 26 20 68 21 101 3z"/>
<path d="M2066 7621 l-49 -50 99 -94 c275 -260 386 -362 393 -362 5 0 72 68
149 150 l141 150 -42 43 c-22 23 -46 41 -52 41 -5 -1 -48 -43 -95 -94 -47 -51
-89 -93 -93 -94 -5 0 -94 80 -199 179 -104 99 -193 180 -197 180 -4 0 -29 -22
-55 -49z"/>
<path d="M1739 7199 c-100 -150 -119 -184 -107 -194 21 -20 538 -355 547 -355
7 0 89 119 234 341 l18 26 -49 32 c-27 17 -52 31 -55 31 -4 0 -44 -56 -90
-125 l-83 -124 -55 36 c-30 19 -58 39 -63 44 -5 5 17 48 52 102 34 51 62 97
62 102 0 9 -80 65 -93 65 -3 0 -33 -45 -68 -99 l-63 -99 -55 35 c-31 19 -60
38 -64 43 -4 4 28 62 73 129 44 67 80 123 80 126 0 5 -87 65 -94 65 -3 0 -60
-82 -127 -181z"/>
<path d="M7996 7004 c-148 -95 -271 -176 -274 -179 -5 -5 64 -115 73 -115 13
0 555 354 555 363 0 18 -62 107 -74 106 -6 0 -132 -79 -280 -175z"/>
<path d="M8280 6770 c-121 -25 -269 -131 -310 -223 -26 -55 -26 -142 -1 -200
46 -108 136 -163 253 -155 38 3 71 8 74 11 4 3 -3 32 -13 64 l-20 58 -62 0
c-58 0 -65 2 -92 33 -65 73 -19 165 117 231 139 68 238 62 270 -15 20 -48 12
-76 -38 -130 l-41 -44 18 -34 c10 -19 27 -45 36 -58 l18 -23 58 60 c82 84 99
148 68 251 -18 62 -72 126 -128 153 -51 25 -144 34 -207 21z"/>
<path d="M1460 6724 c-11 -26 -20 -49 -20 -53 0 -3 100 -49 221 -101 226 -96
259 -118 259 -167 0 -35 -35 -97 -63 -112 -35 -19 -59 -11 -294 90 -114 49
-208 89 -209 89 -3 0 -54 -118 -54 -126 0 -13 425 -194 485 -207 71 -14 130 8
184 70 101 114 98 280 -7 354 -36 26 -449 209 -470 209 -6 0 -20 -21 -32 -46z"/>
<path d="M6351 6599 c-21 -8 -23 -14 -18 -46 4 -20 17 -48 30 -61 22 -21 27
-23 48 -11 13 7 34 12 47 10 26 -3 37 18 28 53 -11 43 -86 73 -135 55z m79
-53 c0 -9 -40 -13 -46 -5 -3 5 6 9 20 9 14 0 26 -2 26 -4z"/>
<path d="M6219 6541 c-24 -20 -24 -20 -6 -51 9 -18 17 -36 17 -42 0 -5 8 -21
19 -34 17 -21 20 -22 31 -8 9 10 22 13 42 9 21 -5 28 -3 28 9 0 16 -37 56 -52
56 -5 0 -6 11 -2 25 12 50 -34 71 -77 36z"/>
<path d="M6111 6431 c-19 -12 -6 -41 18 -41 20 0 31 17 24 38 -5 14 -22 15
-42 3z"/>
<path d="M8110 6063 c0 -8 5 -34 11 -58 12 -49 19 -52 123 -57 l50 -3 28 -114
c16 -62 27 -115 26 -116 -2 -1 -33 -21 -69 -44 l-67 -41 16 -63 c8 -34 18 -65
22 -70 4 -5 567 340 597 367 3 3 -35 147 -40 152 -3 3 -141 16 -308 29 -167
13 -323 26 -346 28 -33 4 -43 1 -43 -10z m453 -138 l108 -7 -103 -64 c-56 -35
-106 -64 -109 -64 -4 0 -12 24 -19 52 -6 29 -13 63 -17 76 -5 20 -3 23 13 19
11 -3 68 -9 127 -12z"/>
<path d="M1330 6061 c-109 -33 -170 -115 -178 -236 -3 -63 -1 -76 25 -125 100
-189 455 -251 595 -103 64 67 88 196 52 281 -26 63 -119 142 -167 142 -7 0
-21 -23 -30 -53 -21 -65 -21 -77 -3 -77 22 0 72 -46 86 -79 9 -23 9 -38 0 -66
-23 -69 -95 -92 -218 -71 -146 26 -230 89 -218 165 9 55 45 83 111 89 30 2 57
7 59 11 2 3 6 34 10 69 l7 62 -53 -1 c-29 0 -64 -4 -78 -8z"/>
<path d="M8525 5404 c-143 -7 -261 -13 -262 -13 -2 -1 -3 -26 -3 -57 l0 -56
218 7 c119 4 213 3 209 -1 -4 -5 -99 -67 -210 -140 l-202 -132 3 -63 c2 -35 5
-65 7 -67 4 -4 519 16 603 24 l62 6 0 55 0 55 -207 -7 -208 -6 200 131 c110
73 200 133 200 134 0 0 -1 34 -3 74 l-4 72 -71 -2 c-40 0 -189 -7 -332 -14z"/>
<path d="M1477 5365 c-76 -26 -110 -77 -147 -213 -25 -92 -50 -132 -84 -132
-38 0 -61 35 -61 95 0 43 5 59 24 79 14 14 30 26 38 26 16 0 16 9 -1 79 -7 30
-17 56 -24 59 -21 7 -89 -40 -115 -80 -77 -119 -53 -308 49 -377 79 -54 217
-32 263 42 10 18 34 79 51 137 37 121 50 140 96 140 37 0 57 -23 68 -76 15
-68 -31 -174 -74 -174 -9 0 -19 -2 -22 -5 -6 -6 16 -132 23 -139 13 -11 77 21
113 58 57 56 81 125 81 231 -1 135 -58 226 -160 254 -51 14 -71 13 -118 -4z"/>
<path d="M8276 4773 c-3 -10 -8 -38 -11 -63 l-7 -45 71 -35 c39 -18 71 -39 71
-44 0 -6 -7 -59 -16 -117 l-16 -106 -81 -14 -82 -14 -11 -70 c-7 -38 -10 -72
-9 -74 2 -1 160 23 351 55 l348 59 13 80 c6 44 11 80 10 81 -1 0 -92 47 -202
104 -110 56 -250 129 -312 162 -98 52 -112 57 -117 41z m356 -295 c113 -60
116 -55 -50 -81 l-94 -14 6 31 c3 17 8 50 12 74 4 23 11 42 17 42 5 0 54 -24
109 -52z"/>
<path d="M1671 4759 c-24 -5 -45 -10 -47 -12 -3 -2 5 -68 17 -147 16 -109 18
-145 9 -150 -15 -9 -130 -23 -137 -16 -3 2 -12 55 -21 116 l-16 112 -54 -5
c-30 -3 -57 -8 -60 -12 -3 -3 1 -56 10 -118 12 -77 13 -114 6 -118 -11 -7
-128 -22 -133 -17 -2 2 -13 66 -24 143 -12 76 -24 141 -26 143 -2 3 -29 1 -60
-3 -48 -6 -55 -9 -55 -28 0 -35 58 -409 64 -415 5 -4 656 87 664 93 3 3 -56
415 -63 433 -5 13 -11 14 -74 1z"/>
<path d="M2702 2828 c-17 -17 -15 -32 8 -53 21 -19 20 -19 -65 -105 l-86 -86
24 -22 23 -22 40 41 c21 22 61 59 87 81 l48 41 24 -23 c24 -23 25 -23 45 -5
21 19 20 19 -52 92 -40 40 -75 73 -78 73 -3 0 -11 -5 -18 -12z"/>
<path d="M7158 2695 l-67 -64 101 -106 101 -106 68 67 c65 64 68 69 52 86 -16
18 -19 17 -65 -29 l-48 -47 -27 27 -28 27 38 31 c39 32 45 47 25 67 -9 9 -20
4 -50 -25 l-38 -37 -25 24 -25 24 46 47 c40 41 45 50 34 64 -7 8 -15 15 -19
15 -3 -1 -36 -29 -73 -65z"/>
<path d="M2786 2569 l-98 -110 57 -52 c88 -79 90 -80 109 -58 17 18 15 21 -28
61 -25 24 -46 46 -46 50 0 4 8 18 18 29 l17 22 41 -35 c38 -32 42 -34 57 -18
16 15 14 19 -20 54 -35 36 -36 37 -19 63 l17 26 50 -42 c47 -39 79 -46 79 -16
0 12 -41 54 -111 115 l-25 22 -98 -111z"/>
<path d="M7020 2563 c-8 -3 -43 -28 -77 -56 l-62 -50 86 -106 c48 -58 89 -109
92 -113 3 -4 17 1 30 11 l24 19 -36 44 -37 45 24 22 23 22 52 -30 c61 -36 63
-37 85 -12 19 21 15 27 -52 60 -38 19 -43 26 -38 47 8 29 -16 79 -43 94 -21
11 -47 12 -71 3z m50 -68 c16 -19 5 -45 -32 -74 l-31 -25 -24 30 -23 29 30 28
c34 30 61 35 80 12z"/>
<path d="M2986 2406 c-66 -45 -121 -86 -123 -92 -2 -5 6 -15 16 -21 16 -10 24
-9 45 8 25 19 28 20 49 5 61 -42 61 -43 50 -81 -10 -31 -9 -37 10 -50 12 -8
24 -15 28 -15 3 0 28 63 54 140 39 116 45 143 34 156 -31 37 -41 34 -163 -50z
m85 -41 c-17 -49 -29 -55 -55 -26 -16 17 -14 19 21 44 21 14 41 26 44 26 4 1
-1 -19 -10 -44z"/>
<path d="M6824 2416 c-17 -13 -16 -18 39 -100 31 -47 57 -95 57 -106 0 -23
-41 -53 -63 -45 -8 4 -40 44 -71 91 -57 85 -73 97 -96 69 -10 -12 -3 -29 40
-95 68 -103 103 -134 144 -126 43 9 75 32 92 70 20 41 10 68 -68 178 -50 72
-56 77 -74 64z"/>
<path d="M3240 2339 c-90 -36 -142 -176 -90 -242 30 -37 80 -52 122 -34 18 8
39 21 46 29 10 13 8 18 -12 31 -21 14 -26 14 -36 2 -15 -18 -52 -19 -68 -3
-39 39 23 160 85 166 37 4 57 -23 47 -62 -4 -18 -1 -27 15 -36 31 -16 41 -5
41 43 0 49 -19 81 -60 102 -33 17 -54 18 -90 4z"/>
<path d="M2377 2207 l-97 -112 67 -62 c38 -34 73 -62 79 -63 6 0 18 8 26 18
14 16 11 20 -33 57 -53 45 -57 55 -31 78 25 23 31 22 69 -15 32 -31 33 -31 54
-12 l21 19 -44 36 -43 37 24 26 24 25 51 -44 c50 -44 51 -45 69 -26 19 19 19
20 -19 53 -74 66 -112 98 -115 97 -2 0 -48 -51 -102 -112z"/>
<path d="M6570 2254 c-41 -25 -81 -48 -87 -52 -10 -6 -9 -13 2 -30 16 -21 16
-21 47 -2 l32 19 59 -104 60 -104 29 15 28 15 -27 47 c-15 26 -42 72 -60 102
-32 54 -32 55 -12 72 10 9 24 18 31 20 8 3 8 10 -1 26 -6 12 -15 22 -19 21 -4
0 -41 -21 -82 -45z"/>
<path d="M7505 2279 c-95 -55 -99 -155 -11 -237 53 -49 97 -60 149 -38 104 43
97 175 -14 259 -32 23 -97 31 -124 16z m95 -75 c76 -65 78 -154 3 -154 -40 0
-113 80 -113 123 0 18 5 38 12 45 20 20 65 14 98 -14z"/>
<path d="M3442 2217 c-10 -17 -42 -75 -71 -128 l-51 -97 24 -15 c28 -19 32
-16 65 50 l21 43 44 -22 45 -21 -29 -57 -29 -57 26 -12 c31 -14 22 -25 104
128 57 107 60 116 43 128 -29 21 -39 16 -64 -36 l-23 -50 -41 21 c-23 11 -42
22 -44 23 -2 2 9 26 23 55 14 29 25 53 23 55 -2 1 -13 7 -25 14 -19 10 -24 7
-41 -22z"/>
<path d="M6435 2176 c-20 -14 -19 -16 23 -100 49 -100 53 -132 18 -148 -14 -6
-32 -8 -41 -4 -8 3 -36 48 -62 101 -25 52 -51 95 -57 95 -7 0 -19 -6 -28 -12
-14 -12 -11 -24 32 -113 52 -106 77 -135 117 -135 41 0 100 36 111 69 13 38 6
63 -49 174 -42 83 -45 87 -64 73z"/>
<path d="M2569 2062 c-45 -59 -87 -113 -92 -120 -7 -9 -4 -17 9 -26 24 -18 30
-13 92 71 25 35 48 60 49 56 2 -4 -3 -55 -11 -113 -13 -102 -13 -105 8 -122
12 -9 23 -17 26 -17 7 0 174 221 178 235 2 7 -6 17 -16 23 -17 9 -26 2 -73
-59 -29 -38 -54 -68 -56 -67 -1 2 1 37 7 78 15 117 13 135 -14 153 -25 16 -25
16 -107 -92z"/>
<path d="M3686 2093 c-7 -16 -35 -75 -61 -132 -36 -81 -43 -106 -33 -112 33
-22 45 -8 103 118 55 119 57 127 39 140 -25 18 -32 17 -48 -14z"/>
<path d="M7279 2091 c-24 -16 -57 -40 -74 -54 l-29 -25 87 -116 c48 -64 90
-116 93 -116 13 0 44 22 44 31 0 6 -14 28 -32 50 l-31 39 23 25 23 24 53 -35
c30 -18 58 -34 63 -34 13 0 47 43 36 47 -5 2 -30 16 -54 31 -42 26 -45 32 -46
72 -1 33 -7 48 -29 66 -36 32 -73 30 -127 -5z m95 -54 c9 -15 5 -24 -27 -53
l-39 -36 -24 23 c-31 29 -30 38 4 66 31 26 70 26 86 0z"/>
<path d="M6170 2058 c-41 -16 -79 -33 -84 -38 -8 -8 76 -243 94 -263 4 -4 19
-3 33 2 l27 10 -20 47 c-11 25 -20 50 -20 55 0 5 20 18 45 29 41 18 45 22 35
40 -13 24 -17 24 -65 4 -20 -8 -38 -14 -39 -12 -8 12 -26 61 -24 63 2 1 26 10
53 20 63 22 66 25 52 51 l-12 22 -75 -30z"/>
<path d="M3793 2054 c-3 -11 -26 -70 -50 -133 -34 -89 -41 -116 -31 -122 27
-17 36 -7 68 76 18 47 34 85 35 85 1 0 10 -49 20 -109 17 -104 19 -110 45
-120 l28 -9 51 135 c41 106 49 138 39 144 -26 17 -34 8 -63 -70 -17 -44 -33
-74 -36 -68 -4 7 -12 48 -19 93 -14 95 -17 100 -53 109 -21 6 -28 3 -34 -11z"/>
<path d="M7117 1976 c-22 -17 -17 -29 52 -131 23 -33 41 -70 41 -82 0 -27 -40
-56 -63 -47 -9 3 -42 46 -73 95 -31 49 -62 89 -68 89 -6 0 -19 -7 -29 -15 -18
-13 -15 -19 50 -117 72 -109 96 -127 148 -114 16 4 44 23 63 42 46 46 41 74
-38 198 -34 53 -63 96 -63 96 -1 0 -10 -7 -20 -14z"/>
<path d="M2854 1970 c-30 -12 -54 -49 -54 -81 0 -17 15 -45 40 -75 22 -27 40
-57 40 -67 0 -47 -86 -17 -97 34 -5 28 -28 49 -52 49 -22 0 -11 -68 15 -100
77 -91 204 -77 204 22 0 27 -10 48 -40 84 -42 51 -47 76 -17 82 23 5 57 -25
57 -49 0 -24 56 -44 64 -22 9 21 -23 83 -54 105 -31 22 -78 30 -106 18z"/>
<path d="M5835 1946 c-44 -13 -79 -27 -79 -32 4 -28 68 -260 74 -267 4 -5 41
1 81 13 41 12 81 23 90 26 11 3 15 12 11 29 -5 30 -1 29 -74 9 -32 -9 -61 -15
-63 -12 -3 2 -7 18 -11 34 -5 29 -4 30 44 42 44 12 49 15 44 38 -5 28 -4 28
-63 10 l-46 -14 -10 33 -11 33 64 18 c65 17 69 20 58 48 -8 20 -11 20 -109 -8z"/>
<path d="M4072 1940 c-43 -26 -71 -90 -72 -157 0 -44 5 -58 29 -85 26 -29 36
-33 82 -34 31 0 54 -5 57 -12 10 -30 31 -7 47 50 9 34 19 67 22 74 4 10 -15
17 -106 38 -2 1 -8 -9 -12 -22 -6 -16 -5 -24 4 -26 52 -16 51 -15 32 -36 -38
-41 -95 -12 -95 48 0 85 58 149 106 117 13 -8 24 -24 24 -34 0 -18 35 -35 52
-25 24 15 -10 87 -52 109 -40 20 -79 19 -118 -5z"/>
<path d="M5664 1903 c-19 -4 -20 -7 -11 -58 6 -30 8 -57 5 -60 -3 -4 -25 -7
-49 -8 l-44 -2 -9 53 c-9 51 -10 53 -35 47 -14 -4 -28 -8 -30 -11 -3 -3 6 -58
40 -232 10 -51 12 -53 37 -47 15 4 28 8 30 9 1 2 -2 27 -8 56 -6 30 -7 57 -3
61 5 3 27 9 50 13 l41 6 7 -48 c9 -64 16 -75 48 -67 23 6 25 10 20 38 -4 18
-16 81 -27 141 -12 60 -25 110 -31 111 -5 1 -19 0 -31 -2z"/>
<path d="M4425 1868 c-15 -70 -44 -262 -39 -269 3 -5 16 -9 29 -9 25 0 29 7
40 74 l6 38 48 -6 c44 -6 49 -4 54 16 7 27 -7 38 -50 38 -38 0 -46 10 -37 45
6 26 8 26 70 19 64 -6 64 -6 64 19 0 24 -5 26 -72 37 -40 6 -81 14 -90 16 -12
4 -19 -2 -23 -18z"/>
<path d="M3039 1797 c-23 -40 -57 -98 -76 -131 -19 -32 -33 -60 -31 -61 11
-11 160 -95 168 -95 9 0 34 39 28 45 -2 1 -29 17 -60 35 l-57 32 16 26 c9 15
18 29 20 31 1 2 23 -9 48 -24 26 -15 48 -25 49 -23 2 1 8 13 14 24 10 19 7 24
-33 45 -49 26 -53 34 -30 66 l16 22 51 -30 c38 -23 57 -28 68 -21 29 18 14 36
-67 83 l-83 48 -41 -72z"/>
<path d="M5317 1850 c-67 -9 -71 -11 -62 -40 6 -18 13 -21 41 -18 39 5 40 4
49 -97 11 -129 13 -135 47 -135 l30 0 -8 88 c-14 155 -14 157 24 160 26 3 32
7 32 28 0 22 -3 24 -47 23 -27 -1 -74 -5 -106 -9z"/>
<path d="M6848 1809 c-87 -50 -99 -64 -77 -86 9 -9 19 -8 41 3 16 8 33 12 37
9 5 -3 26 -36 47 -73 72 -131 73 -133 95 -121 11 6 22 16 25 23 3 7 -21 57
-52 111 l-57 99 22 17 c12 10 26 19 33 21 8 3 8 10 -1 26 -6 12 -15 22 -19 22
-4 0 -46 -23 -94 -51z"/>
<path d="M4684 1840 c-30 -12 -62 -56 -75 -102 -16 -60 -2 -117 36 -155 28
-28 40 -33 79 -33 64 0 110 41 125 111 27 127 -60 222 -165 179z m92 -65 c22
-33 15 -126 -11 -155 -23 -25 -57 -26 -80 0 -24 26 -17 130 10 160 25 28 61
26 81 -5z"/>
<path d="M4900 1685 l0 -145 30 0 30 0 0 60 0 60 34 0 c32 0 34 -3 55 -60 20
-55 25 -60 52 -60 35 0 35 3 8 69 l-22 52 23 24 c32 34 30 92 -5 122 -23 20
-37 23 -116 23 l-89 0 0 -145z m165 60 c0 -29 -2 -30 -52 -33 l-53 -3 0 36 0
36 53 -3 c50 -3 52 -4 52 -33z"/>
<path d="M3347 1783 c-14 -13 -7 -33 11 -33 11 0 27 -9 37 -20 11 -12 31 -20
52 -20 27 0 33 4 33 21 0 15 -5 19 -18 15 -12 -4 -27 3 -42 19 -22 24 -59 33
-73 18z"/>
<path d="M3212 1617 c-58 -121 -61 -133 -45 -144 9 -7 19 -13 23 -13 3 0 24
37 47 83 25 50 43 76 46 67 3 -8 9 -58 12 -111 6 -91 8 -97 32 -108 14 -7 27
-10 28 -9 2 2 32 62 69 135 63 127 65 133 46 143 -11 6 -24 9 -28 6 -4 -2 -23
-36 -42 -75 -36 -76 -50 -77 -50 -6 -1 96 -12 142 -37 154 -13 6 -27 11 -31
11 -4 0 -35 -60 -70 -133z"/>
<path d="M6716 1737 c-16 -11 -14 -20 29 -110 26 -53 45 -105 43 -114 -2 -10
-15 -24 -30 -32 -37 -21 -52 -6 -105 107 -24 50 -46 92 -51 92 -4 -1 -17 -6
-29 -13 l-22 -12 48 -101 c65 -137 99 -162 176 -130 40 17 68 57 67 95 0 24
-95 231 -105 231 -2 0 -11 -6 -21 -13z"/>
<path d="M6438 1611 l-86 -37 56 -137 c54 -134 56 -138 81 -132 14 4 28 8 30
11 2 2 -6 29 -18 60 -12 31 -20 58 -19 59 2 1 21 9 43 18 32 12 39 20 37 38
-3 32 -5 32 -47 15 -52 -22 -62 -20 -73 13 -11 30 -10 30 49 53 61 24 68 33
47 59 -12 14 -23 11 -100 -20z"/>
<path d="M3500 1498 c-120 -140 -117 -136 -84 -144 22 -6 32 -2 49 20 l21 27
47 -20 c43 -19 47 -23 47 -55 0 -29 5 -38 29 -51 29 -14 30 -14 35 13 3 15 8
88 11 163 6 127 6 137 -12 141 -10 3 -25 9 -33 12 -11 4 -43 -27 -110 -106z
m92 -23 c-2 -30 -5 -55 -6 -55 -2 0 -17 5 -34 11 l-32 11 37 44 c21 24 37 44
38 44 0 0 -2 -25 -3 -55z"/>
<path d="M3725 1398 c-45 -141 -47 -164 -9 -156 12 2 25 28 43 88 15 47 29 81
33 75 3 -5 16 -54 28 -108 19 -85 25 -99 47 -108 13 -5 26 -9 28 -9 8 0 95
282 89 291 -3 5 -14 9 -24 9 -14 0 -25 -19 -47 -87 l-29 -87 -22 94 c-12 52
-22 100 -22 107 0 8 -48 33 -66 33 -2 0 -24 -64 -49 -142z"/>
<path d="M6073 1483 c-13 -2 -23 -7 -23 -11 0 -28 86 -282 96 -282 7 0 49 11
93 25 70 22 78 28 74 46 -8 29 -22 32 -72 14 -24 -8 -47 -15 -52 -15 -4 0 -24
52 -44 115 -20 63 -39 114 -43 114 -4 -1 -17 -4 -29 -6z"/>
<path d="M4036 1452 c-2 -4 -18 -69 -36 -146 -27 -114 -30 -140 -19 -147 7 -4
44 -13 80 -20 61 -11 71 -10 106 8 91 46 110 188 35 256 -21 20 -159 60 -166
49z m127 -94 c46 -54 1 -168 -66 -168 -54 0 -56 7 -35 95 10 44 20 86 23 93 6
18 56 5 78 -20z"/>
<path d="M5908 1438 c-52 -14 -78 -25 -78 -35 0 -13 55 -240 65 -270 3 -8 30
-5 95 12 50 13 93 25 95 27 8 8 -8 48 -19 48 -6 0 -36 -7 -66 -15 -30 -8 -55
-13 -57 -12 -1 2 -4 19 -5 38 -3 33 -2 34 45 43 46 9 53 18 41 49 -5 13 -12
13 -57 1 -28 -7 -52 -12 -53 -11 -1 1 -5 16 -9 34 -7 34 -10 33 98 59 19 4 26
11 23 21 -3 8 -6 19 -6 24 0 13 -24 10 -112 -13z"/>
<path d="M4326 1349 c-81 -70 -72 -221 14 -267 39 -20 107 -9 141 24 48 46 64
144 34 208 -34 71 -129 89 -189 35z m118 -35 c37 -37 13 -174 -34 -189 -28 -9
-70 19 -71 48 -2 39 2 71 12 104 16 50 62 69 93 37z"/>
<path d="M5530 1367 c0 -1 -11 -67 -25 -145 -31 -176 -31 -174 -2 -170 16 2
24 13 31 40 9 35 12 37 60 45 51 9 51 9 69 -24 17 -33 39 -41 65 -24 10 6 -2
39 -55 145 l-68 136 -37 0 c-21 0 -38 -1 -38 -3z m90 -168 c0 -4 -16 -9 -35
-11 l-35 -4 6 35 c13 77 15 78 40 30 13 -24 23 -47 24 -50z"/>
<path d="M4686 1234 c-4 -60 -8 -128 -11 -151 l-5 -43 35 0 35 0 0 55 0 55 59
0 c43 0 65 5 84 20 47 37 44 112 -6 145 -14 9 -58 18 -104 22 l-81 6 -6 -109z
m152 34 c33 -33 -10 -77 -62 -64 -22 5 -26 12 -26 41 0 34 1 35 38 35 21 0 43
-5 50 -12z"/>
<path d="M5216 1333 l-28 -5 6 -91 c15 -207 15 -207 48 -207 l30 0 -4 60 c-3
62 2 70 44 70 14 0 26 -15 45 -60 26 -60 39 -69 77 -54 13 5 11 15 -15 66
l-30 60 20 19 c31 29 29 92 -4 124 -21 22 -32 25 -92 24 -37 -1 -81 -4 -97 -6z
m142 -55 c33 -33 1 -68 -61 -68 -32 0 -35 3 -39 35 -2 19 1 37 7 39 22 9 82 5
93 -6z"/>
<path d="M4995 1318 c-18 -48 -95 -284 -95 -291 0 -4 12 -7 27 -5 21 2 29 10
37 35 7 26 15 34 41 39 57 10 78 2 89 -33 8 -29 13 -33 42 -33 19 0 34 2 34 4
0 3 -23 70 -51 150 l-51 146 -34 0 c-19 0 -37 -6 -39 -12z m44 -90 c4 -13 11
-35 15 -50 6 -26 4 -28 -24 -28 -16 0 -30 3 -30 6 0 13 23 94 26 94 3 0 8 -10
13 -22z"/>
</g>
</svg>
